<svg width="142" height="38" viewBox="0 0 142 38" fill="none" xmlns="http://www.w3.org/2000/svg">
<g clip-path="url(#clip0_779_19760)">
<path d="M56.4811 14.5152H58.4112V23.4041H56.4811V22.124C55.7479 23.1375 54.7113 23.6352 53.3531 23.6352C52.1197 23.6352 51.0828 23.1908 50.207 22.2841C49.3311 21.3774 48.9022 20.2575 48.9022 18.9599C48.9022 17.6441 49.3311 16.542 50.207 15.6353C51.0828 14.7285 52.1197 14.2842 53.3531 14.2842C54.7113 14.2842 55.7479 14.7819 56.4811 15.7776V14.5152ZM53.6569 21.8042C54.4612 21.8042 55.1401 21.5376 55.6767 21.0041C56.213 20.453 56.4811 19.7775 56.4811 18.9599C56.4811 18.1419 56.213 17.4665 55.6767 16.9331C55.1401 16.382 54.4612 16.1153 53.6569 16.1153C52.8522 16.1153 52.1731 16.382 51.6369 16.9331C51.1007 17.4665 50.8326 18.1419 50.8326 18.9599C50.8326 19.7775 51.1007 20.453 51.6369 21.0041C52.1731 21.5376 52.8522 21.8042 53.6569 21.8042Z" fill="#231F20"/>
<path d="M63.9173 18.1243C65.2937 18.4265 67.0811 18.9954 67.0453 20.8976C67.0453 21.7508 66.7057 22.4262 66.0444 22.9064C65.3832 23.3863 64.5609 23.6352 63.56 23.6352C61.7901 23.6352 60.4855 22.853 59.9135 21.5551L61.576 20.5952C61.8799 21.4487 62.5411 21.8751 63.56 21.8751C64.5786 21.8751 65.0794 21.5376 65.0794 20.8797C65.0794 20.3108 64.3286 19.973 63.3811 19.742C62.0406 19.4041 60.2351 18.8709 60.2709 17.004C60.2709 16.1864 60.5747 15.5288 61.2006 15.0308C61.826 14.5331 62.6126 14.2842 63.5419 14.2842C65.0256 14.2842 66.2233 14.9777 66.8488 16.1332L65.2221 17.0397C64.9182 16.3643 64.3463 16.0265 63.5419 16.0265C62.8092 16.0265 62.2372 16.3465 62.2372 16.9688C62.2372 17.5554 62.988 17.8577 63.9173 18.1243Z" fill="#231F20"/>
<path d="M73.6503 16.363H71.434V20.6296C71.434 21.7675 72.1848 21.7496 73.6503 21.6785V23.4029C70.7013 23.7586 69.5038 22.9586 69.5038 20.6296V16.363H67.8591V14.5141H69.5038V12.5942L71.434 12.0253V14.5141H73.6503V16.363Z" fill="#231F20"/>
<path d="M82.0762 14.5152H84.0068V23.4041H82.0762V22.124C81.3435 23.1375 80.3069 23.6352 78.9483 23.6352C77.7151 23.6352 76.6784 23.1908 75.8026 22.2841C74.9268 21.3774 74.4974 20.2575 74.4974 18.9599C74.4974 17.6441 74.9268 16.542 75.8026 15.6353C76.6784 14.7285 77.7151 14.2842 78.9483 14.2842C80.3069 14.2842 81.3435 14.7819 82.0762 15.7776V14.5152ZM79.2521 21.8042C80.0564 21.8042 80.7358 21.5376 81.2719 21.0041C81.8081 20.453 82.0762 19.7775 82.0762 18.9599C82.0762 18.1419 81.8081 17.4665 81.2719 16.9331C80.7358 16.382 80.0564 16.1153 79.2521 16.1153C78.4478 16.1153 77.7685 16.382 77.2323 16.9331C76.6961 17.4665 76.428 18.1419 76.428 18.9599C76.428 19.7775 76.6961 20.453 77.2323 21.0041C77.7685 21.5376 78.4478 21.8042 79.2521 21.8042Z" fill="#231F20"/>
<path d="M94.2621 17.9464V23.4041H92.3315V18.1419C92.3315 16.8086 91.563 16.0799 90.3299 16.0799C88.9712 16.0799 88.0595 16.9154 88.0595 18.6398V23.4041H86.1294V14.5152H88.0595V15.653C88.6497 14.7463 89.5612 14.2842 90.8302 14.2842C92.8858 14.2842 94.2621 15.6708 94.2621 17.9464Z" fill="#231F20"/>
<path d="M103.325 14.5152H105.255V23.4041H103.325V22.124C102.592 23.1375 101.555 23.6352 100.196 23.6352C98.9633 23.6352 97.9263 23.1908 97.0508 22.2841C96.1749 21.3774 95.7456 20.2575 95.7456 18.9599C95.7456 17.6441 96.1749 16.542 97.0508 15.6353C97.9263 14.7285 98.9633 14.2842 100.196 14.2842C101.555 14.2842 102.592 14.7819 103.325 15.7776V14.5152ZM100.5 21.8042C101.305 21.8042 101.984 21.5376 102.52 21.0041C103.056 20.453 103.325 19.7775 103.325 18.9599C103.325 18.1419 103.056 17.4665 102.52 16.9331C101.984 16.382 101.305 16.1153 100.5 16.1153C99.6956 16.1153 99.017 16.382 98.4809 16.9331C97.9439 17.4665 97.6764 18.1419 97.6764 18.9599C97.6764 19.7775 97.9439 20.453 98.4809 21.0041C99.017 21.5376 99.6956 21.8042 100.5 21.8042Z" fill="#231F20"/>
<path d="M120.111 17.9462V23.4039H118.18V18.1416C118.18 16.8084 117.412 16.0796 116.179 16.0796C114.819 16.0796 113.907 16.9151 113.907 18.6396V23.4039H111.978V10.9595H113.907V15.6528C114.498 14.7461 115.409 14.284 116.678 14.284C118.734 14.284 120.111 15.6706 120.111 17.9462Z" fill="#231F20"/>
<path d="M128.161 14.5145H130.091V23.4034H128.161V22.2656C127.571 23.1723 126.66 23.6344 125.391 23.6344C123.335 23.6344 121.958 22.2479 121.958 19.9723V14.5145H123.889V19.7768C123.889 21.1101 124.658 21.8391 125.891 21.8391C127.25 21.8391 128.161 21.0033 128.161 19.2788V14.5145Z" fill="#231F20"/>
<path d="M140.41 15.635C141.285 16.5417 141.714 17.6439 141.714 18.9596C141.714 20.2573 141.285 21.3773 140.41 22.2839C139.534 23.1907 138.497 23.635 137.264 23.635C135.905 23.635 134.869 23.1373 134.135 22.1237V23.4039H132.205V10.9595H134.135V15.7774C134.869 14.7817 135.905 14.284 137.264 14.284C138.497 14.284 139.534 14.7284 140.41 15.635ZM136.96 21.804C137.764 21.804 138.443 21.5374 138.979 21.0038C139.515 20.4527 139.784 19.7773 139.784 18.9596C139.784 18.1416 139.515 17.4662 138.979 16.933C138.443 16.3819 137.764 16.1152 136.96 16.1152C136.155 16.1152 135.476 16.3819 134.94 16.933C134.404 17.4662 134.135 18.1416 134.135 18.9596C134.135 19.7773 134.404 20.4527 134.94 21.0038C135.476 21.5374 136.155 21.804 136.96 21.804Z" fill="#231F20"/>
<path d="M36.692 24.1893C36.6635 24.2874 36.6344 24.3851 36.6043 24.4825L36.5753 24.5756C36.5384 24.6927 36.5002 24.8092 36.4611 24.9254L36.4343 25.0047C36.3932 25.1245 36.3509 25.2439 36.3075 25.3627L36.277 25.4456C36.2338 25.5624 36.1893 25.6787 36.1438 25.7944L36.1092 25.8814C36.0631 25.9969 36.016 26.1119 35.9676 26.2261L35.9309 26.312C35.8839 26.4216 35.8359 26.5307 35.787 26.6392L35.7457 26.7298C35.6969 26.8363 35.6471 26.9423 35.5963 27.0478L35.5506 27.1422C35.5001 27.2459 35.4486 27.349 35.3961 27.4515L35.3465 27.5481C35.293 27.6512 35.2384 27.7539 35.1832 27.856L35.1344 27.9455C35.077 28.0501 35.0185 28.154 34.9591 28.2574L34.9055 28.3502C34.8463 28.4518 34.7863 28.5527 34.7253 28.6532L34.6697 28.7439C34.6101 28.8408 34.5497 28.9372 34.4883 29.033L34.4253 29.1306C34.3654 29.2228 34.3048 29.3145 34.2433 29.4057L34.173 29.5092C34.1117 29.5989 34.0495 29.6879 33.9865 29.7765L33.9127 29.88C33.8492 29.9681 33.7851 30.0556 33.72 30.1426L33.6452 30.2424C33.5792 30.3296 33.5123 30.4162 33.4449 30.5022L33.366 30.6022C33.2968 30.6893 33.2267 30.7757 33.1559 30.8617L33.0761 30.9577C33.0094 31.0375 32.9419 31.1167 32.874 31.1954C32.8419 31.2325 32.8097 31.2695 32.7773 31.3063C32.7118 31.381 32.6456 31.4551 32.5788 31.5289L32.4695 31.6485C32.404 31.7196 32.3378 31.7901 32.2712 31.8603C32.2336 31.8999 32.1957 31.9395 32.1576 31.9789C32.0903 32.0484 32.0225 32.1176 31.9541 32.1861C31.9169 32.2234 31.8796 32.2605 31.8421 32.2975C31.7701 32.3685 31.6976 32.439 31.6245 32.5088L31.5284 32.6002C31.4496 32.6744 31.3701 32.7478 31.2901 32.8207C31.2518 32.8557 31.2129 32.8905 31.1743 32.9251C31.1027 32.9892 31.0306 33.0529 30.958 33.1159C30.9188 33.15 30.8794 33.1839 30.8398 33.2177C30.7669 33.2799 30.6935 33.3418 30.6196 33.4029C30.5793 33.4362 30.5389 33.4696 30.4985 33.5026C30.422 33.5648 30.3452 33.6262 30.2678 33.6873C30.2301 33.7171 30.1923 33.7469 30.1542 33.7765C30.075 33.8379 29.9951 33.8987 29.9149 33.959C29.8674 33.9946 29.8199 34.0301 29.7721 34.0654C29.6971 34.1207 29.6215 34.1755 29.5455 34.2297C29.4985 34.2632 29.4514 34.2966 29.4041 34.3298C29.3265 34.3843 29.2484 34.438 29.1698 34.4913C29.121 34.5246 29.0719 34.5574 29.0226 34.5901C28.9396 34.6455 28.8561 34.7002 28.772 34.7542C28.7304 34.781 28.6885 34.8074 28.6466 34.8339C28.5573 34.8903 28.4676 34.9463 28.3772 35.0012C28.3387 35.0248 28.2997 35.048 28.261 35.0712C28.1718 35.1246 28.0823 35.1773 27.9922 35.2292L27.8749 35.2962C27.7829 35.3484 27.6904 35.3998 27.5975 35.4505L27.485 35.5113C27.3885 35.5629 27.2916 35.6138 27.1942 35.6639L27.0897 35.7174C26.9862 35.7698 26.8822 35.8211 26.7777 35.8716L26.6921 35.913C26.5816 35.9657 26.4704 36.0172 26.3587 36.0679L26.2681 36.1088C26.152 36.1607 26.0352 36.2115 25.9179 36.2612L25.8424 36.2928C25.7232 36.3426 25.6033 36.3914 25.4829 36.4389L25.4099 36.4672C25.292 36.5131 25.1736 36.558 25.0546 36.6015L24.9805 36.6283C24.8614 36.6714 24.7417 36.7133 24.6215 36.7541L24.549 36.7784C24.4275 36.819 24.3053 36.8585 24.1827 36.8966L24.1119 36.9186C23.9883 36.9566 23.864 36.9933 23.7393 37.0289L23.6705 37.0485C23.5424 37.0844 23.4137 37.1191 23.2845 37.1524L23.2263 37.1675C23.0885 37.2026 22.9501 37.2361 22.8112 37.2682L22.7842 37.2745C22.6357 37.3085 22.4866 37.341 22.3367 37.3715L22.3226 37.3743C22.176 37.404 22.0289 37.4321 21.8811 37.4584L21.8446 37.4647C21.7031 37.4896 21.5611 37.513 21.4186 37.535L21.3731 37.5417C21.2331 37.5628 21.0927 37.5824 20.9517 37.6003L20.902 37.6066C20.7614 37.6242 20.6204 37.6402 20.479 37.6547L20.4303 37.6596C20.287 37.6739 20.1431 37.6865 19.9988 37.6977L19.9569 37.7009C19.809 37.712 19.6605 37.7212 19.5116 37.7289L19.4818 37.7305C19.3273 37.7383 19.1721 37.744 19.0167 37.7481L19.004 37.7485C18.843 37.7526 18.6816 37.7546 18.5196 37.7546C18.3577 37.7546 18.1963 37.7526 18.0353 37.7485L18.0224 37.7481C17.8669 37.7441 17.7121 37.7382 17.5576 37.7305L17.5273 37.7289C17.3785 37.7213 17.2303 37.712 17.0824 37.7009L17.0402 37.6977C16.896 37.6866 16.7524 37.6738 16.6091 37.6596L16.5599 37.6546C16.4185 37.6402 16.2777 37.6241 16.1372 37.6066L16.0875 37.6003C15.9466 37.5823 15.8061 37.5628 15.6661 37.5417L15.6206 37.535C15.4786 37.5132 15.3371 37.4898 15.1961 37.465L15.1574 37.4583C15.0106 37.4321 14.8642 37.4042 14.7185 37.3746L14.7017 37.3713C14.5524 37.3408 14.4038 37.3086 14.2559 37.2747L14.2264 37.2678C14.088 37.2359 13.9502 37.2024 13.8129 37.1675L13.7546 37.1524C13.6254 37.1191 13.4968 37.0844 13.3688 37.0485L13.2998 37.0289C13.1755 36.9935 13.0517 36.9569 12.9284 36.919L12.856 36.8965C12.7342 36.8585 12.6128 36.8194 12.492 36.779L12.4162 36.7535C12.2968 36.7131 12.1781 36.6714 12.0599 36.6287L11.9844 36.6014C11.8665 36.5583 11.749 36.5137 11.6321 36.4683L11.5548 36.4382C11.4361 36.3914 11.3179 36.3433 11.2004 36.2942L11.1171 36.2593C11.0014 36.2103 10.8862 36.1602 10.7716 36.109L10.6792 36.0673C10.5685 36.0171 10.4585 35.966 10.3489 35.9138L10.2584 35.87C10.155 35.82 10.0521 35.7694 9.94978 35.7176C9.91414 35.6996 9.8787 35.6811 9.84316 35.6629C9.74655 35.6131 9.65023 35.5627 9.55461 35.5115L9.43981 35.4493C9.34749 35.399 9.25573 35.3479 9.16439 35.2962L9.04707 35.2292C8.95699 35.1773 8.86741 35.1246 8.77832 35.0712L8.66198 35.0012C8.57211 34.9466 8.48288 34.891 8.39407 34.8349C8.34948 34.8067 8.30505 34.7786 8.26074 34.75C8.17888 34.6974 8.09751 34.644 8.01656 34.5901C7.96664 34.557 7.917 34.5236 7.86743 34.49C7.79028 34.4376 7.71339 34.3847 7.63708 34.3312C7.58913 34.2975 7.54139 34.2637 7.49371 34.2297C7.41775 34.1755 7.34221 34.1206 7.26709 34.0654C7.21844 34.0295 7.17012 33.9934 7.1219 33.9572C7.04333 33.8981 6.96505 33.8386 6.88748 33.7783C6.84829 33.7479 6.80926 33.7171 6.77036 33.6864C6.69335 33.6257 6.61682 33.5644 6.54078 33.5026C6.50027 33.4695 6.45991 33.4362 6.41968 33.4029C6.34575 33.3418 6.27231 33.2799 6.19936 33.2177C6.15984 33.1839 6.12045 33.15 6.0812 33.1159C6.0086 33.0529 5.93657 32.9893 5.86497 32.9251C5.82628 32.8905 5.78753 32.8557 5.74905 32.8207C5.66901 32.7478 5.58961 32.6744 5.51083 32.6002L5.41472 32.5088C5.34212 32.4395 5.27016 32.3695 5.19869 32.299C5.16071 32.2615 5.12286 32.224 5.08516 32.1861C5.01677 32.1176 4.94895 32.0484 4.88163 31.9789C4.84358 31.9395 4.80567 31.8999 4.76796 31.8603C4.70134 31.7901 4.63526 31.7196 4.5697 31.6485L4.46038 31.5289C4.39452 31.4561 4.32916 31.3829 4.26443 31.3092L4.16396 31.1939C4.09656 31.1159 4.0298 31.0374 3.96372 30.9583L3.88074 30.8584C3.81089 30.7737 3.7418 30.6883 3.67342 30.6024C3.64604 30.568 3.61887 30.5334 3.59176 30.4989C3.52731 30.4167 3.46349 30.3339 3.40038 30.2506C3.37208 30.2133 3.344 30.1758 3.31599 30.1384C3.25343 30.0545 3.19158 29.97 3.13036 29.8852L3.04899 29.7713C2.98874 29.6864 2.92914 29.6009 2.87031 29.515L2.79174 29.3992C2.73291 29.3119 2.67478 29.2241 2.61735 29.1358L2.54693 29.0266C2.48796 28.9344 2.42982 28.8417 2.37246 28.7486L2.31159 28.6493C2.25226 28.5517 2.19399 28.4533 2.13642 28.3545L2.07766 28.253C2.01988 28.1525 1.963 28.0512 1.90706 27.9494L1.85341 27.851C1.80033 27.753 1.74803 27.6545 1.69664 27.5555L1.64026 27.4458C1.58971 27.3468 1.54001 27.2473 1.49114 27.1473L1.43968 27.041C1.39109 26.9399 1.34343 26.8383 1.29659 26.7362L1.2492 26.6322C1.2016 26.5266 1.15498 26.4206 1.10927 26.3141L1.06996 26.2221C1.02222 26.109 0.975601 25.9954 0.930037 25.8814L0.895494 25.7944C0.849999 25.6789 0.805628 25.5629 0.76238 25.4463L0.730365 25.3589C0.687468 25.2413 0.645554 25.1233 0.604903 25.0047L0.578153 24.9254C0.538977 24.8092 0.500925 24.6927 0.463925 24.5756L0.43493 24.4825C0.40474 24.3852 0.375744 24.2873 0.34717 24.1893C0.127278 23.362 0.5566 22.4874 1.3609 22.1714C5.45382 20.5632 11.621 19.5395 18.5196 19.5395C25.4184 19.5395 31.5854 20.5632 35.6783 22.1714C36.4827 22.4874 36.912 23.362 36.692 24.1893ZM0.347099 13.6837C0.375955 13.5849 0.405091 13.4861 0.435561 13.3879L0.463083 13.2998C0.500574 13.181 0.539118 13.0628 0.578855 12.9451L0.604342 12.8696C0.645554 12.7492 0.688099 12.6294 0.731699 12.51L0.761186 12.4296C0.805067 12.3112 0.85014 12.1934 0.896267 12.0762L0.929124 11.9935C0.975391 11.8775 1.02279 11.762 1.07136 11.6472L1.10724 11.5632C1.15421 11.4538 1.20202 11.3448 1.25096 11.2364L1.29519 11.1394C1.34244 11.0364 1.39061 10.9338 1.43968 10.8317L1.49058 10.7265C1.54001 10.6252 1.59042 10.5244 1.64167 10.424L1.69433 10.3216C1.74684 10.2204 1.8002 10.1198 1.85447 10.0197L1.90698 9.92337C1.96293 9.82155 2.01981 9.72033 2.07766 9.61964L2.13642 9.5181C2.19441 9.41845 2.25325 9.31937 2.31299 9.22098L2.37063 9.12693C2.42877 9.03251 2.48774 8.93852 2.54749 8.84516L2.61735 8.73693C2.67512 8.64797 2.73361 8.55957 2.79287 8.47172L2.87031 8.35769C2.92963 8.2711 2.98973 8.18493 3.05046 8.09932L3.12931 7.98899C3.19108 7.90331 3.25343 7.81812 3.31662 7.73348L3.39602 7.62769C3.46118 7.54159 3.52717 7.45606 3.5938 7.37114L3.67327 7.27045C3.74236 7.18351 3.81221 7.09727 3.88292 7.01159L3.9633 6.91488C4.03092 6.83401 4.09916 6.75371 4.1681 6.67397L4.26127 6.56699C4.32853 6.49039 4.39635 6.41434 4.4648 6.33886L4.56583 6.22831C4.63387 6.15437 4.7026 6.08105 4.77182 6.00822L4.87763 5.89789C4.9465 5.82666 5.0158 5.75599 5.08573 5.68589C5.12321 5.64832 5.16091 5.61089 5.19869 5.5736C5.27016 5.50315 5.34212 5.4331 5.41472 5.36377L5.51083 5.27243C5.58953 5.19827 5.66901 5.12481 5.74905 5.05191C5.78745 5.01692 5.8262 4.98222 5.86497 4.94751C5.93664 4.88341 6.0086 4.81972 6.0812 4.75667C6.12024 4.7228 6.15941 4.689 6.19873 4.65542C6.27294 4.59208 6.34764 4.52931 6.42277 4.46709C6.4611 4.43539 6.49943 4.40376 6.53805 4.37234C6.6152 4.30941 6.69299 4.24727 6.7712 4.18554C6.80975 4.15516 6.84822 4.12472 6.88698 4.09462C6.96617 4.03317 7.046 3.97256 7.12618 3.9123C7.1702 3.87927 7.21429 3.84617 7.2586 3.81349C7.33694 3.75567 7.41579 3.69863 7.49505 3.64199C7.54223 3.60826 7.58955 3.57475 7.63708 3.54143C7.71339 3.48795 7.79028 3.43501 7.86743 3.38264C7.917 3.34899 7.96664 3.3156 8.01656 3.28244C8.09758 3.2286 8.17888 3.17518 8.26074 3.12254C8.30505 3.09405 8.34948 3.06583 8.39407 3.03769C8.48288 2.98161 8.57211 2.92604 8.66198 2.87136C8.70031 2.84803 8.73893 2.82499 8.7774 2.80194C8.86804 2.74769 8.9591 2.69413 9.05065 2.64134L9.16039 2.57863C9.25334 2.52598 9.34672 2.47403 9.44058 2.42285L9.55461 2.36111C9.65023 2.30986 9.74648 2.25945 9.84316 2.20973C9.8787 2.19143 9.91414 2.17306 9.94978 2.15505C10.0521 2.10324 10.155 2.05261 10.2584 2.00262L10.3489 1.95876C10.4584 1.90646 10.5685 1.85548 10.6792 1.80535L10.7716 1.76359C10.8862 1.7124 11.0014 1.66233 11.1171 1.61331L11.2004 1.5784C11.3179 1.52931 11.4361 1.48113 11.5548 1.43434L11.6321 1.40432C11.749 1.35886 11.8665 1.31438 11.9844 1.27116L12.0599 1.24392C12.178 1.20119 12.2968 1.15949 12.4162 1.11907L12.492 1.09358C12.6128 1.05329 12.7342 1.01411 12.856 0.97613L12.9284 0.953641C13.0517 0.915793 13.1755 0.879203 13.2998 0.843729L13.3688 0.824107C13.4968 0.788076 13.6254 0.75351 13.7546 0.720202L13.8129 0.705119C13.9501 0.670134 14.088 0.636687 14.2264 0.604774L14.2559 0.597861C14.4038 0.563924 14.5524 0.531803 14.7017 0.501358L14.7185 0.498006C14.8642 0.468398 15.0106 0.440607 15.1574 0.41435L15.1961 0.407647C15.3371 0.382788 15.4787 0.359465 15.6206 0.337678L15.6661 0.330904C15.8061 0.309816 15.9466 0.290264 16.0875 0.272248L16.1372 0.266034C16.2777 0.248507 16.4185 0.232516 16.5599 0.217991L16.6091 0.213033C16.7524 0.198788 16.896 0.18608 17.0402 0.174977L17.0824 0.171694C17.2303 0.160661 17.3785 0.151374 17.5273 0.143693L17.5576 0.142087C17.7121 0.134406 17.8669 0.128471 18.0224 0.12449L18.0353 0.124071C18.1962 0.120091 18.3577 0.117996 18.5196 0.117996C18.6816 0.117996 18.843 0.119951 19.004 0.124071L19.0167 0.12449C19.1721 0.128471 19.3272 0.134336 19.4818 0.142087L19.5116 0.143693C19.6605 0.151374 19.8089 0.160661 19.9569 0.171694L19.9988 0.174977C20.1431 0.18608 20.287 0.198719 20.4303 0.213033L20.479 0.217922C20.6204 0.232376 20.7614 0.248437 20.902 0.266034L20.9517 0.272248C21.0926 0.290195 21.2331 0.309816 21.3731 0.330904L21.4186 0.337678C21.5611 0.359535 21.7031 0.382997 21.8446 0.407926L21.8811 0.414211C22.0289 0.440536 22.176 0.468608 22.3226 0.498355L22.3367 0.501148C22.4866 0.531663 22.6357 0.563994 22.7842 0.598071L22.8112 0.604425C22.9502 0.636477 23.0885 0.670065 23.2263 0.705119L23.2845 0.720202C23.4137 0.75351 23.5424 0.788146 23.6705 0.824107L23.7393 0.843729C23.864 0.879342 23.9883 0.916002 24.1119 0.953989L24.1827 0.975915C24.3053 1.01411 24.4275 1.05356 24.549 1.0942L24.6215 1.1185C24.7417 1.15929 24.8614 1.20126 24.9805 1.24434L25.0546 1.27109C25.1737 1.31458 25.292 1.35949 25.4099 1.40536L25.4829 1.43372C25.6034 1.48113 25.7232 1.52994 25.8424 1.57979L25.9179 1.61143C26.0352 1.66107 26.152 1.71185 26.2681 1.7638L26.3587 1.80478C26.4704 1.85541 26.5816 1.90688 26.6921 1.9596L26.7777 2.00101C26.8822 2.05156 26.9862 2.10282 27.0897 2.15519L27.1942 2.20875C27.2916 2.25882 27.3885 2.30965 27.485 2.36133L27.5967 2.4218C27.6912 2.47333 27.7854 2.52557 27.8788 2.57863L27.9885 2.64134C28.0801 2.69413 28.1712 2.74769 28.2618 2.80194C28.3003 2.82499 28.3389 2.84803 28.3772 2.87136C28.4676 2.92638 28.5573 2.98225 28.6466 3.03866C28.6885 3.06514 28.7304 3.0916 28.772 3.11835C28.8561 3.17239 28.9396 3.22713 29.0226 3.28244C29.0719 3.31519 29.121 3.34808 29.1698 3.38125C29.2483 3.43453 29.3265 3.48844 29.4041 3.54283C29.4509 3.57565 29.4977 3.60875 29.5441 3.64199C29.6234 3.69863 29.7023 3.75567 29.7806 3.81349C29.8241 3.84554 29.8674 3.87795 29.9107 3.91041C29.9924 3.97186 30.0738 4.03373 30.1546 4.09644C30.1923 4.1257 30.2296 4.15516 30.267 4.1847C30.3455 4.24671 30.4237 4.30914 30.5012 4.37234L30.6164 4.46709C30.6916 4.52931 30.7663 4.59208 30.8405 4.65542C30.8798 4.689 30.919 4.7228 30.958 4.75667C31.0305 4.8198 31.1027 4.88341 31.1743 4.94751C31.213 4.98215 31.2517 5.01692 31.2901 5.05191C31.3702 5.12474 31.4497 5.1982 31.5284 5.27243L31.6245 5.36377C31.6976 5.43367 31.7701 5.50412 31.8421 5.57513C31.8794 5.61194 31.9166 5.6488 31.9535 5.68589C32.0234 5.75599 32.0928 5.82666 32.1616 5.89789C32.1969 5.93455 32.2323 5.97128 32.2674 6.00822C32.3367 6.08105 32.4054 6.15437 32.4734 6.22831L32.5744 6.33886C32.6437 6.41526 32.7123 6.4922 32.7803 6.56971L32.87 6.67257C32.9395 6.75295 33.0084 6.83395 33.0766 6.91558L33.1538 7.00844C33.2253 7.09524 33.2961 7.18274 33.3662 7.27072L33.4429 7.36792C33.5126 7.45675 33.5818 7.5462 33.6498 7.63635L33.7193 7.72908C33.7849 7.81679 33.8496 7.90505 33.9136 7.99394L33.9852 8.09415C34.0486 8.18346 34.1112 8.27319 34.173 8.36355L34.2422 8.4655C34.304 8.55712 34.365 8.64936 34.4253 8.74209L34.4878 8.83888C34.5499 8.93587 34.6112 9.03343 34.6715 9.1316L34.7239 9.21714C34.7854 9.31833 34.8458 9.42014 34.9055 9.52251L34.9591 9.6153C35.0185 9.71872 35.077 9.82262 35.1344 9.92727L35.1821 10.0148C35.2386 10.119 35.2944 10.2239 35.349 10.3293L35.3947 10.4182C35.4478 10.5221 35.4999 10.6266 35.5511 10.7315L35.5963 10.8248C35.6475 10.9313 35.6977 11.0383 35.747 11.1459L35.785 11.2292C35.8354 11.3407 35.8847 11.4528 35.9329 11.5655L35.9662 11.6433C36.0154 11.7594 36.0632 11.8762 36.1101 11.9935L36.143 12.0762C36.1893 12.1937 36.2344 12.3117 36.2783 12.4304L36.3062 12.5064C36.3503 12.6269 36.3932 12.7479 36.4349 12.8696L36.4604 12.9451C36.5 13.0628 36.5387 13.181 36.5761 13.2998L36.6036 13.3879C36.6341 13.4861 36.6633 13.5849 36.6921 13.6837C36.9117 14.5109 36.4825 15.3853 35.6783 15.7012C31.5854 17.3094 25.4184 18.3332 18.5196 18.3332C11.621 18.3332 5.45382 17.3094 1.3609 15.7012C0.556741 15.3853 0.127559 14.5109 0.347099 13.6837Z" fill="#E7E8E9"/>
<path d="M34.3846 21.705C33.0656 29.2318 26.4649 34.9543 18.5196 34.9543C10.5744 34.9543 3.97354 29.2318 2.65462 21.705C6.69916 20.3677 12.3133 19.5391 18.5196 19.5391C24.7261 19.5391 30.34 20.3677 34.3846 21.705ZM2.65469 16.1667C3.97361 8.63983 10.5744 2.91741 18.5196 2.91741C26.4649 2.91741 33.0656 8.63983 34.3846 16.1667C30.34 17.504 24.7261 18.3327 18.5196 18.3327C12.3133 18.3327 6.69923 17.504 2.65469 16.1667Z" fill="#B9BBBD"/>
<path d="M31.6586 20.9372C30.6886 27.2876 25.1755 32.1541 18.5196 32.1541C11.8638 32.1541 6.35076 27.2876 5.38076 20.9372C9.0664 20.0578 13.6075 19.5385 18.5196 19.5385C23.4319 19.5385 27.9728 20.0578 31.6586 20.9372ZM5.38083 16.9335C6.35083 10.583 11.8638 5.71677 18.5196 5.71677C25.1755 5.71677 30.6885 10.583 31.6585 16.9335C27.9728 17.8131 23.4319 18.3322 18.5196 18.3322C13.6075 18.3322 9.06648 17.8131 5.38083 16.9335Z" fill="#8E9092"/>
<path d="M28.8951 20.3751C28.1906 25.4483 23.8142 29.3555 18.5195 29.3555C13.225 29.3555 8.84855 25.4483 8.14401 20.3751C11.2436 19.8418 14.7737 19.5399 18.5195 19.5399C22.2655 19.5399 25.7955 19.8418 28.8951 20.3751ZM8.14401 17.4983C8.84855 12.4251 13.225 8.51796 18.5195 8.51796C23.8142 8.51796 28.1906 12.4251 28.8951 17.4983C25.7955 18.0317 22.2655 18.3336 18.5195 18.3336C14.7737 18.3336 11.2436 18.0317 8.14401 17.4983Z" fill="#656668"/>
<path d="M26.1092 19.9727C25.6009 23.6903 22.397 26.5555 18.5196 26.5555C14.6424 26.5555 11.4386 23.6903 10.9302 19.9727C13.2994 19.6926 15.8548 19.5397 18.5196 19.5397C21.1845 19.5397 23.7401 19.6926 26.1092 19.9727ZM10.9302 17.9002C11.4386 14.1826 14.6425 11.3175 18.5196 11.3175C22.3969 11.3175 25.6009 14.1826 26.1092 17.9002C23.7401 18.1804 21.1845 18.3333 18.5196 18.3333C15.8548 18.3333 13.2994 18.1804 10.9302 17.9002Z" fill="#231F20"/>
</g>
<defs>
<clipPath id="clip0_779_19760">
<rect width="142" height="38" fill="white"/>
</clipPath>
</defs>
</svg>
